<?xml version="1.0" standalone="no"?>
<!DOCTYPE svg PUBLIC "-//W3C//DTD SVG 20010904//EN"
 "http://www.w3.org/TR/2001/REC-SVG-20010904/DTD/svg10.dtd">
<svg version="1.0" xmlns="http://www.w3.org/2000/svg"
 width="248.000000pt" height="203.000000pt" viewBox="0 0 248.000000 203.000000"
 preserveAspectRatio="xMidYMid meet">

<g transform="translate(0.000000,203.000000) scale(0.100000,-0.100000)"
fill="#000000" stroke="none">
<path d="M1305 1788 c-29 -16 -65 -50 -65 -62 0 -5 15 4 33 21 17 17 41 35 52
41 11 6 16 11 10 11 -5 0 -19 -5 -30 -11z"/>
<path d="M1353 1776 c4 -11 1 -13 -10 -9 -10 4 -14 2 -10 -4 4 -6 0 -14 -9
-17 -22 -9 -26 -8 -18 5 4 8 0 8 -15 0 -22 -12 -30 -27 -8 -16 6 4 3 -1 -7 -9
-11 -9 -26 -16 -33 -16 -7 0 -12 -3 -11 -7 1 -5 -4 -21 -11 -38 -29 -68 -37
-110 -29 -145 5 -19 11 -53 15 -75 3 -22 9 -45 14 -51 6 -7 -11 -18 -47 -34
-55 -22 -57 -25 -91 -99 -57 -126 -66 -142 -77 -138 -6 2 -12 23 -14 48 -5 68
-38 128 -81 146 -51 22 -122 13 -166 -21 -34 -27 -35 -28 -35 -100 0 -78 14
-107 39 -83 10 9 15 9 18 1 2 -7 12 -10 21 -9 81 16 84 16 77 -8 -7 -21 -6
-21 7 -3 14 18 16 18 31 -12 14 -30 14 -32 -5 -38 -16 -5 -18 -8 -7 -15 11 -7
11 -9 1 -9 -10 0 -8 -5 4 -17 16 -17 16 -18 -7 -23 -16 -4 -20 -8 -11 -14 7
-4 21 -4 32 -1 25 8 25 -3 1 -34 -13 -18 -25 -23 -44 -19 -25 5 -25 4 -12 -16
8 -11 15 -31 15 -43 0 -14 6 -23 16 -23 8 0 12 -4 9 -10 -14 -23 16 -8 31 15
14 21 19 23 32 13 8 -7 16 -11 16 -9 1 2 12 1 25 -4 18 -5 30 0 57 26 l34 33
-6 -61 c-4 -40 -3 -63 5 -67 7 -5 11 3 11 22 0 17 6 32 14 35 9 4 12 14 9 26
-5 20 -1 21 80 21 105 0 119 -4 111 -36 -4 -14 -1 -31 6 -39 11 -13 7 -15 -28
-15 -39 0 -52 -11 -52 -43 0 -8 3 -7 9 1 13 21 85 11 89 -12 2 -10 -2 -22 -9
-27 -7 -4 -14 -25 -16 -46 -1 -21 -4 -55 -7 -75 -2 -21 -2 -38 1 -38 11 0 32
35 33 53 0 22 12 22 63 -4 60 -30 76 -47 88 -92 l10 -39 22 20 c12 11 34 26
49 33 l27 14 -31 49 c-29 43 -30 49 -15 58 12 6 17 22 17 52 0 48 10 56 92 75
63 15 65 14 71 -10 4 -15 11 -20 23 -15 12 5 15 2 10 -10 -3 -8 -6 -21 -6 -28
0 -7 -15 -17 -32 -22 -19 -6 -34 -17 -36 -28 -3 -16 2 -18 45 -14 l48 3 -3
-30 c-2 -16 -8 -31 -13 -33 -5 -2 -9 -15 -9 -28 0 -13 -4 -24 -10 -24 -5 0
-19 -9 -30 -20 -11 -11 -15 -20 -10 -20 14 0 12 -28 -2 -32 -8 -3 -9 -6 -1
-11 6 -4 23 4 39 18 36 31 45 23 13 -12 -24 -26 -23 -27 26 -7 12 5 15 -2 16
-32 1 -28 3 -32 6 -14 5 27 63 91 75 84 4 -3 15 -21 24 -40 9 -19 19 -32 22
-30 3 3 -1 12 -8 21 -7 8 -9 15 -5 15 33 0 45 -85 20 -134 -18 -35 -19 -39 -2
-29 6 4 20 9 31 10 16 3 18 -1 13 -25 -3 -16 1 -51 9 -78 20 -63 27 -131 14
-139 -5 -3 -10 0 -10 8 0 8 -7 18 -16 21 -24 9 -26 8 -15 -11 5 -10 5 -26 0
-40 l-9 -24 118 3 c108 3 117 5 120 23 2 15 1 17 -6 6 -8 -11 -11 -9 -17 10
-4 13 -12 27 -17 30 -7 4 -7 23 0 52 7 36 6 51 -4 66 -9 13 -11 22 -4 26 15 9
13 66 -2 62 -7 -1 -16 -9 -20 -17 -4 -8 -7 9 -7 39 -1 46 1 52 14 41 17 -14
21 0 4 17 -8 8 1 13 31 18 47 8 75 -2 128 -48 31 -25 32 -27 9 -22 -14 4 -28
2 -32 -4 -3 -6 -11 -8 -17 -5 -6 4 -14 1 -18 -7 -5 -7 -21 -13 -37 -14 -26 0
-28 -3 -29 -39 -1 -22 3 -58 8 -80 5 -23 12 -50 14 -61 2 -11 8 -21 14 -23 5
-2 10 -19 10 -38 l0 -34 50 0 c28 0 50 4 50 8 0 17 -39 44 -54 39 -24 -9 -31
14 -10 30 16 12 17 15 4 23 -9 6 -17 5 -21 -2 -4 -7 -8 -6 -11 3 -3 8 6 22 19
32 22 18 33 45 13 32 -5 -3 -10 -2 -10 4 0 5 -3 17 -7 27 -4 12 -3 15 5 10 7
-4 12 -2 12 3 0 6 5 11 10 11 6 0 10 -9 10 -19 0 -32 11 -51 30 -51 10 0 25
-11 34 -25 20 -31 20 -33 -1 -31 -10 0 -18 -6 -18 -14 0 -10 12 -16 38 -18 43
-4 40 -22 -4 -22 -26 0 -28 -2 -17 -19 9 -15 25 -19 80 -20 l68 -1 0 239 c0
208 -2 240 -16 245 -10 4 -13 13 -9 25 8 25 -21 81 -41 81 -21 0 -94 61 -94
80 -1 8 -22 32 -48 53 -26 20 -74 62 -107 92 -33 30 -63 55 -67 55 -18 0 -100
94 -100 114 0 14 -13 31 -37 47 -40 26 -71 57 -71 71 0 4 -6 8 -14 8 -17 0
-35 -43 -38 -91 -2 -24 -8 -35 -19 -36 -11 -1 -22 20 -38 75 -26 92 -54 168
-86 238 -20 44 -31 55 -82 80 l-58 29 0 60 c-1 69 -46 228 -77 266 -17 21 -18
21 -9 2 17 -33 13 -34 -17 -5 -15 15 -26 32 -24 38 3 12 -28 24 -62 24 -12 0
-16 -5 -13 -14z m77 -61 c6 -8 9 -18 6 -24 -3 -5 -1 -11 5 -13 18 -6 -2 -38
-25 -38 -24 0 -46 -17 -46 -36 0 -8 12 -9 40 -4 22 4 42 5 45 2 11 -12 4 -57
-12 -75 -10 -11 -12 -17 -5 -13 6 4 12 2 12 -4 0 -6 4 -9 9 -6 5 4 4 -5 -2
-18 -7 -14 -19 -28 -27 -31 -8 -3 -31 -14 -50 -25 -19 -10 -41 -17 -48 -15 -8
3 -3 -8 9 -23 19 -22 30 -27 56 -24 28 4 31 2 26 -16 -5 -23 -33 -38 -42 -24
-3 5 -19 15 -35 23 -20 9 -33 25 -39 48 -4 18 -18 47 -30 63 -18 24 -22 41
-20 97 4 114 31 153 118 164 17 2 33 5 36 6 4 0 12 -6 19 -14z m57 -47 c-3 -8
-6 -5 -6 6 -1 11 2 17 5 13 3 -3 4 -12 1 -19z m-47 -42 c0 -2 -13 -6 -29 -8
-17 -2 -28 -1 -25 4 5 8 54 12 54 4z m139 -279 c0 -9 -2 -8 -6 1 -2 6 -10 9
-15 6 -7 -4 -8 -2 -4 5 9 13 26 5 25 -12z m28 -7 c1 -11 -2 -20 -8 -20 -10 0
-12 23 -2 33 9 9 9 10 10 -13z m-427 -9 c-8 -6 -17 -8 -21 -5 -10 6 -4 -59 6
-77 5 -8 -4 -3 -19 11 -15 13 -22 26 -17 28 6 2 8 8 5 13 -11 19 6 39 33 39
21 0 24 -3 13 -9z m35 -1 c3 -5 1 -10 -4 -10 -6 0 -11 5 -11 10 0 6 2 10 4 10
3 0 8 -4 11 -10z m98 -64 c-14 -18 -21 -21 -31 -13 -11 8 -9 13 10 23 35 20
41 17 21 -10z m127 14 c0 -5 -4 -10 -10 -10 -5 0 -10 5 -10 10 0 6 5 10 10 10
6 0 10 -4 10 -10z m70 -15 c5 3 10 2 10 -4 0 -5 -15 -11 -32 -13 -30 -3 -33
-6 -31 -32 l2 -29 -16 23 c-15 21 -15 24 6 39 18 13 19 19 9 30 -7 7 -1 6 14
-4 15 -9 32 -14 38 -10z m-121 -17 c-1 -7 -5 -24 -9 -38 -7 -22 -8 -21 -9 13
-1 20 4 37 9 37 6 0 10 -6 9 -12z m-530 -17 c9 -6 21 -5 32 2 27 17 66 -5 74
-43 8 -38 7 -39 -32 -42 -18 -1 -29 -6 -27 -10 3 -4 -6 -8 -20 -8 -14 0 -26 5
-26 10 0 14 -66 12 -90 -2 -25 -16 -31 -9 -24 33 5 28 13 38 42 51 44 19 53
20 71 9z m245 -67 c3 -8 2 -12 -4 -9 -6 3 -10 10 -10 16 0 14 7 11 14 -7z
m232 -19 c-1 -8 -5 -17 -8 -21 -5 -4 -4 16 1 34 3 9 9 -1 7 -13z m-521 -15
c-3 -5 -14 -10 -23 -9 -14 0 -13 2 3 9 27 11 27 11 20 0z m148 -7 c-7 -2 -19
-2 -25 0 -7 3 -2 5 12 5 14 0 19 -2 13 -5z m17 -40 c0 -17 -6 -23 -22 -23 -33
0 -52 15 -45 34 4 11 17 16 37 14 24 -2 30 -7 30 -25z m400 17 c0 -5 -2 -10
-4 -10 -3 0 -8 5 -11 10 -3 6 -1 10 4 10 6 0 11 -4 11 -10z m272 3 c-6 -2 -9
-10 -6 -15 4 -7 2 -8 -5 -4 -13 9 -5 26 12 25 9 0 8 -2 -1 -6z m-686 -85 c-10
-49 -24 -55 -22 -9 0 28 5 41 15 41 10 0 12 -8 7 -32z m174 -41 c0 -7 -7 -22
-15 -33 -13 -17 -13 -16 -3 14 13 34 18 40 18 19z m694 -33 c6 -15 4 -15 -11
-3 -10 7 -20 15 -22 16 -2 2 3 3 11 3 9 0 19 -7 22 -16z m40 -318 c-3 -9 -10
-16 -15 -16 -14 0 -11 28 4 33 16 6 19 3 11 -17z m480 -352 c21 -14 36 -71 16
-59 -6 4 -17 2 -25 -5 -10 -9 -15 -7 -20 9 -3 12 -11 21 -16 21 -5 0 -9 7 -9
16 0 10 -6 14 -14 11 -10 -4 -13 -1 -10 7 7 18 54 17 78 0z m-126 -11 c-10 -2
-18 -9 -18 -15 0 -6 -3 -9 -6 -5 -10 10 6 27 24 26 15 -1 15 -2 0 -6z m112
-105 c0 -11 -12 -10 -30 2 -12 7 -10 9 8 7 12 0 22 -5 22 -9z m20 -28 c0 -5
-2 -10 -4 -10 -3 0 -8 5 -11 10 -3 6 -1 10 4 10 6 0 11 -4 11 -10z"/>
<path d="M1300 1607 l-25 -10 24 -5 c13 -2 28 1 33 6 15 15 -4 21 -32 9z"/>
<path d="M1306 1525 c-9 -14 -13 -25 -8 -25 5 0 14 11 20 25 6 14 10 25 8 25
-2 0 -11 -11 -20 -25z"/>
<path d="M1365 1540 c-4 -6 -11 -7 -17 -4 -7 4 -8 2 -4 -4 11 -18 56 -15 56 3
0 17 -25 20 -35 5z"/>
<path d="M1372 1503 c9 -2 18 -12 20 -21 3 -14 6 -13 16 6 12 21 11 22 -20 21
-18 -1 -25 -3 -16 -6z"/>
<path d="M2325 250 c3 -5 10 -10 16 -10 5 0 9 5 9 10 0 6 -7 10 -16 10 -8 0
-12 -4 -9 -10z"/>
<path d="M829 1063 c-10 -2 -19 -14 -23 -26 -6 -22 9 -37 34 -36 11 1 10 3 -2
6 -22 6 -23 21 -1 45 9 10 14 17 12 17 -2 -1 -11 -3 -20 -6z"/>
<path d="M730 929 c0 -5 5 -7 10 -4 6 3 10 8 10 11 0 2 -4 4 -10 4 -5 0 -10
-5 -10 -11z"/>
<path d="M620 896 c0 -2 8 -10 18 -17 15 -13 16 -12 3 4 -13 16 -21 21 -21 13z"/>
<path d="M590 865 c7 -9 15 -13 17 -11 7 7 -7 26 -19 26 -6 0 -6 -6 2 -15z"/>
<path d="M550 844 c0 -8 5 -12 10 -9 6 4 8 11 5 16 -9 14 -15 11 -15 -7z"/>
<path d="M947 829 c4 -13 8 -18 11 -10 2 7 -1 18 -6 23 -8 8 -9 4 -5 -13z"/>
<path d="M1165 780 l20 -9 -20 -1 c-19 -1 -19 -1 -2 -11 23 -13 57 9 35 22 -7
5 -22 8 -33 8 l-20 0 20 -9z"/>
<path d="M946 765 c10 -8 24 -14 29 -14 6 0 1 6 -9 14 -11 8 -24 15 -30 15 -5
0 -1 -7 10 -15z"/>
<path d="M878 753 c6 -2 18 -2 25 0 6 3 1 5 -13 5 -14 0 -19 -2 -12 -5z"/>
<path d="M1235 690 c3 -5 10 -10 16 -10 5 0 9 5 9 10 0 6 -7 10 -16 10 -8 0
-12 -4 -9 -10z"/>
<path d="M1053 635 c-6 -25 -6 -45 -2 -45 14 0 41 48 37 66 -6 34 -25 23 -35
-21z"/>
<path d="M1150 670 c0 -5 5 -10 10 -10 6 0 10 5 10 10 0 6 -4 10 -10 10 -5 0
-10 -4 -10 -10z"/>
<path d="M1251 669 c-20 -8 -21 -12 -11 -25 12 -13 15 -13 28 0 21 21 12 35
-17 25z"/>
<path d="M1598 663 c7 -3 16 -2 19 1 4 3 -2 6 -13 5 -11 0 -14 -3 -6 -6z"/>
<path d="M1602 641 c-11 -7 -10 -10 3 -15 20 -7 38 1 30 15 -7 11 -16 11 -33
0z"/>
<path d="M1257 623 c-12 -12 -7 -22 8 -17 8 4 15 10 15 15 0 11 -14 12 -23 2z"/>
<path d="M1697 592 c2 -3 -7 -12 -19 -19 l-23 -12 22 -1 c25 0 40 18 26 30 -6
4 -8 5 -6 2z"/>
<path d="M1258 578 c-7 -7 -22 -15 -33 -16 -36 -7 -29 -12 13 -12 31 0 44 5
52 20 8 16 8 20 -4 20 -8 0 -21 -6 -28 -12z"/>
<path d="M1695 550 l-30 -8 33 -1 c17 0 32 4 32 9 0 6 -1 9 -2 9 -2 -1 -16 -5
-33 -9z"/>
<path d="M402 504 c14 -14 21 -15 30 -6 8 8 9 12 1 12 -6 0 -20 3 -30 6 -17 7
-17 6 -1 -12z"/>
<path d="M560 498 c-7 -16 -18 -28 -23 -28 -6 0 -8 -3 -4 -6 3 -3 -1 -24 -9
-46 -8 -22 -14 -55 -14 -72 0 -18 -7 -41 -16 -52 -15 -18 -15 -18 -9 9 4 19 2
26 -5 22 -6 -4 -10 -61 -9 -153 0 -109 3 -141 10 -122 6 14 8 41 5 61 -4 26
-1 40 9 49 8 7 12 16 9 21 -3 5 -1 9 4 9 6 0 8 9 5 20 -3 13 0 20 8 20 10 1
10 3 -2 10 -15 9 -15 16 -1 77 8 37 20 75 27 83 18 21 37 86 32 107 -3 15 -6
13 -17 -9z"/>
<path d="M372 358 c-7 -7 -12 -16 -12 -21 0 -4 -12 -24 -27 -43 -20 -27 -31
-34 -49 -30 -13 4 -24 1 -27 -7 -3 -9 -7 -9 -19 1 -11 9 -18 10 -23 2 -3 -5
-11 -10 -16 -10 -6 0 -8 4 -5 9 3 5 -2 12 -11 16 -10 3 -19 1 -21 -4 -2 -6
-22 -14 -44 -17 -56 -9 -70 -45 -66 -167 3 -83 4 -90 16 -68 8 13 9 20 3 17
-7 -4 -11 1 -11 13 0 10 6 22 13 25 9 5 9 7 0 12 -7 3 -13 17 -13 32 0 14 3
22 7 19 3 -4 11 -3 18 3 16 13 55 1 48 -16 -3 -8 -9 -12 -13 -9 -4 3 -11 -2
-14 -10 -4 -13 -2 -13 14 -5 11 6 21 6 24 1 4 -5 1 -11 -6 -13 -7 -3 -8 -9 -2
-20 14 -24 76 -1 85 32 5 17 7 4 8 -37 l1 -63 69 0 c80 0 102 6 94 26 -3 8 -9
12 -13 9 -4 -3 -8 5 -8 18 1 12 -2 40 -6 62 -17 98 -16 135 5 191 21 57 22 73
1 52z m-192 -123 c0 -1 -8 -10 -19 -19 -17 -16 -18 -16 -14 8 3 16 10 23 19
19 8 -3 14 -6 14 -8z m40 -5 c0 -5 -5 -10 -11 -10 -5 0 -7 5 -4 10 3 6 8 10
11 10 2 0 4 -4 4 -10z m-10 -82 c11 -4 8 -8 -10 -16 -14 -5 -31 -7 -38 -4 -15
5 -9 28 7 25 6 -2 11 3 11 10 0 8 3 9 8 1 4 -6 14 -13 22 -16z"/>
<path d="M275 351 c3 -6 13 -11 21 -11 8 0 14 -5 14 -10 0 -7 7 -7 21 0 25 14
24 16 -24 24 -27 5 -37 4 -32 -3z"/>
<path d="M1801 334 c0 -11 3 -14 6 -6 3 7 2 16 -1 19 -3 4 -6 -2 -5 -13z"/>
<path d="M218 323 c6 -2 18 -2 25 0 6 3 1 5 -13 5 -14 0 -19 -2 -12 -5z"/>
<path d="M146 295 c-11 -8 -15 -15 -9 -15 6 0 16 7 23 15 16 19 11 19 -14 0z"/>
<path d="M1813 260 c0 -30 2 -43 4 -27 2 15 2 39 0 55 -2 15 -4 2 -4 -28z"/>
<path d="M1843 214 c-21 -26 -21 -58 0 -51 10 3 30 68 23 74 -1 2 -12 -9 -23
-23z"/>
<path d="M600 210 c-23 -7 -23 -8 -3 -9 12 -1 25 4 28 9 3 6 5 10 3 9 -2 -1
-14 -5 -28 -9z"/>
<path d="M1477 156 c-7 -16 2 -56 12 -56 4 0 5 16 3 35 -5 38 -7 42 -15 21z"/>
<path d="M1862 140 c0 -14 2 -19 5 -12 2 6 2 18 0 25 -3 6 -5 1 -5 -13z"/>
<path d="M861 126 c11 -9 69 -15 64 -6 -3 6 -20 10 -37 10 -17 0 -29 -2 -27
-4z"/>
<path d="M2282 113 c14 -4 16 -8 8 -24 -6 -11 -7 -19 -2 -19 11 0 22 36 14 44
-3 3 -12 5 -21 5 -13 -1 -13 -2 1 -6z"/>
<path d="M768 93 c6 -2 18 -2 25 0 6 3 1 5 -13 5 -14 0 -19 -2 -12 -5z"/>
<path d="M1608 73 c-26 -29 -43 -73 -27 -73 5 0 9 10 9 23 0 56 60 65 87 12
l18 -34 2 49 c1 50 1 50 -31 50 -22 0 -40 -8 -58 -27z"/>
<path d="M1807 93 c-14 -13 -6 -23 18 -23 15 0 25 -6 25 -14 0 -20 17 -29 26
-15 5 8 3 9 -5 4 -9 -5 -12 -1 -10 11 2 11 0 25 -4 32 -9 13 -39 16 -50 5z"/>
<path d="M690 80 c0 -12 37 -14 44 -2 2 4 -6 9 -20 10 -13 1 -24 -3 -24 -8z"/>
<path d="M1885 70 c-3 -6 1 -7 9 -4 18 7 21 14 7 14 -6 0 -13 -4 -16 -10z"/>
<path d="M1065 40 c-3 -6 1 -7 9 -4 18 7 21 14 7 14 -6 0 -13 -4 -16 -10z"/>
<path d="M1462 25 c0 -17 2 -22 5 -12 2 9 2 23 0 30 -3 6 -5 -1 -5 -18z"/>
<path d="M1740 25 c0 -22 4 -25 37 -25 l36 0 -23 25 c-13 14 -29 25 -37 25 -7
0 -13 -11 -13 -25z"/>
<path d="M1125 20 c22 -25 47 -27 38 -3 -4 11 -3 14 5 9 7 -4 12 -2 12 3 0 6
-7 11 -15 11 -8 0 -15 -5 -15 -12 0 -9 -3 -9 -12 0 -20 20 -32 13 -13 -8z"/>
<path d="M637 9 c7 -7 15 -10 18 -7 3 3 -2 9 -12 12 -14 6 -15 5 -6 -5z"/>
<path d="M1403 3 c9 -2 23 -2 30 0 6 3 -1 5 -18 5 -16 0 -22 -2 -12 -5z"/>
</g>
</svg>
